<svg width="17" height="5" viewBox="0 0 17 5" fill="none" xmlns="http://www.w3.org/2000/svg">
<path d="M2.5 5C3.88071 5 5 3.88071 5 2.5C5 1.11929 3.88071 0 2.5 0C1.11929 0 0 1.11929 0 2.5C0 3.88071 1.11929 5 2.5 5Z" fill="#707070"/>
<path d="M8.5 5C9.88071 5 11 3.88071 11 2.5C11 1.11929 9.88071 0 8.5 0C7.11929 0 6 1.11929 6 2.5C6 3.88071 7.11929 5 8.5 5Z" fill="#707070"/>
<path d="M14.5 5C15.8807 5 17 3.88071 17 2.5C17 1.11929 15.8807 0 14.5 0C13.1193 0 12 1.11929 12 2.5C12 3.88071 13.1193 5 14.5 5Z" fill="#707070"/>
</svg>
